<svg xmlns="http://www.w3.org/2000/svg" viewBox="0 0 1000 650" fill="none"><defs><linearGradient id="v" x1="0" y1="0" x2="1" y2="1"><stop stop-color="#ec4899"/><stop offset="1" stop-color="#8b5cf6"/></linearGradient><filter id="glow"><feGaussianBlur stdDeviation="10"/></filter><style>@keyframes pulse{0%,100%{transform:scale(1);opacity:.7}50%{transform:scale(1.08);opacity:1}}@keyframes wave{0%,100%{stroke-dashoffset:0;opacity:.45}50%{stroke-dashoffset:90;opacity:.9}}@keyframes speak{0%,100%{transform:scaleY(.65)}50%{transform:scaleY(1.35)}}@keyframes progress{0%{transform:translateX(-365px)}100%{transform:translateX(560px)}}@keyframes float{0%,100%{transform:translateY(0)}50%{transform:translateY(-8px)}}.pulse{transform-origin:500px 275px;animation:pulse 2.4s ease-in-out infinite}.wave{stroke-dasharray:24 18;animation:wave 2.2s linear infinite}.bar{transform-origin:500px 274px;animation:speak .8s ease-in-out infinite}.bar2{animation-delay:.18s}.bar3{animation-delay:.36s}.bar4{animation-delay:.54s}.progress{animation:progress 3s linear infinite}.float{animation:float 3s ease-in-out infinite}</style></defs><rect width="1000" height="650" rx="34" fill="#090f22"/><rect x="100" y="90" width="800" height="470" rx="30" fill="#0e1730" stroke="#ffffff" stroke-opacity=".1"/><circle cx="500" cy="275" r="150" fill="#ec4899" opacity=".12" filter="url(#glow)" class="pulse"/><circle cx="500" cy="275" r="130" fill="url(#v)" opacity=".16" class="pulse"/><circle cx="500" cy="275" r="92" fill="#111d3c" stroke="#ec4899" stroke-opacity=".55"/><path d="M475 250c0-20 50-20 50 0v55c0 20-50 20-50 0z" fill="url(#v)"/><path d="M455 280v25c0 35 90 35 90 0v-25M500 340v38M465 378h70" stroke="#fbcfe8" stroke-width="7" stroke-linecap="round"/><path class="wave" d="M310 275c0-105 70-170 150-190M690 275c0-105-70-170-150-190M260 275c0-145 95-225 200-250M740 275c0-145-95-225-200-250" stroke="#8b5cf6" stroke-opacity=".65" stroke-width="7" stroke-linecap="round"/><g transform="translate(500 275)"><rect class="bar" x="-32" y="-28" width="8" height="56" rx="4" fill="#fbcfe8"/><rect class="bar bar2" x="-12" y="-42" width="8" height="84" rx="4" fill="#fbcfe8"/><rect class="bar bar3" x="8" y="-34" width="8" height="68" rx="4" fill="#fbcfe8"/><rect class="bar bar4" x="28" y="-20" width="8" height="40" rx="4" fill="#fbcfe8"/></g><g class="float"><rect x="165" y="175" width="150" height="58" rx="16" fill="#101b39" stroke="#ec4899" stroke-opacity=".35"/><circle cx="190" cy="204" r="11" fill="#25d366"/><path d="M185 204l4 4 7-9" stroke="#fff" stroke-width="2.5" stroke-linecap="round" stroke-linejoin="round"/><text x="212" y="201" fill="#f8fafc" font-family="Arial,sans-serif" font-size="15" font-weight="700">Customer</text><text x="212" y="220" fill="#94a3b8" font-family="Arial,sans-serif" font-size="12">Voice message</text></g><g class="float" style="animation-delay:1.2s"><rect x="685" y="175" width="150" height="58" rx="16" fill="#101b39" stroke="#8b5cf6" stroke-opacity=".35"/><circle cx="710" cy="204" r="11" fill="#8b5cf6"/><path d="M705 204l4 4 7-9" stroke="#fff" stroke-width="2.5" stroke-linecap="round" stroke-linejoin="round"/><text x="732" y="201" fill="#f8fafc" font-family="Arial,sans-serif" font-size="15" font-weight="700">AgentHub AI</text><text x="732" y="220" fill="#94a3b8" font-family="Arial,sans-serif" font-size="12">Natural reply</text></g><rect x="220" y="465" width="560" height="18" rx="9" fill="#1e293b"/><g clip-path="url(#clip)"><rect class="progress" x="220" y="465" width="365" height="18" rx="9" fill="url(#v)"/></g><defs><clipPath id="clip"><rect x="220" y="465" width="560" height="18" rx="9"/></clipPath></defs><circle cx="585" cy="474" r="14" fill="#f9a8d4" class="pulse"/><rect x="310" y="505" width="380" height="10" rx="5" fill="#334155"/></svg>